# xmcd
#
# Track frame offsets:
#	150
#	20657
#	37987
#	56565
#	71347
#	88632
#	105740
#	121850
#	137337
#	151502
#	169430
#	189937
#	207267
#	225845
#	240625
#	257912
#	275017
#	291127
#	306615
#	320782
#
# Disc length: 4515 seconds
#
# Revision: 2
# Processed by: cddbd v1.5.2PL0 Copyright (c) Steve Scherf et al.
# Submitted via: audiograbber 1.83.01
#
DISCID=1711a114
DTITLE=Top Hits Monthly  - THC0111
DYEAR=2001
DGENRE=Karaoke
TTITLE0=Tim Mcgraw  - Angry All The Time (vocals)
TTITLE1=3 Of Hearts  - Arizona Rain (vocals)
TTITLE2=Leann Rimes  - Soon (vocals)
TTITLE3=Andy Griggs  - How Cool Is That (vocals)
TTITLE4=Chely Wright  - Never Love You Enough (vocals)
TTITLE5=Joe Diffie  - In Another World (vocals)
TTITLE6=Kenny Chesney  - The Tin Man (vocals)
TTITLE7=Steve Holly  - Good Morning Beautiful (vocals)
TTITLE8=Reba Mcentire  - I'm A Survivor (vocals)
TTITLE9=Collin Raye  - Ain't Nobody Gonna Take That From Me (vocals)
TTITLE10=Tim Mcgraw - Angry All The Time
TTITLE11=3 Of Hearts - Arizona Rain
TTITLE12=Leann Rimes - Soon
TTITLE13=Andy Griggs - How Cool Is That
TTITLE14=Chely Wright - Never Love You Enough
TTITLE15=Joe Diffie - In Another World
TTITLE16=Kenny Chesney - The Tin Man
TTITLE17=Steve Holly - Good Morning Beautiful
TTITLE18=Reba Mcentire - I'm A Survivor
TTITLE19=Collin Raye - Ain't Nobody Gonna Take That From Me
EXTD=fixed vocals
EXTT0=
EXTT1=
EXTT2=
EXTT3=
EXTT4=
EXTT5=
EXTT6=
EXTT7=
EXTT8=
EXTT9=
EXTT10=
EXTT11=
EXTT12=
EXTT13=
EXTT14=
EXTT15=
EXTT16=
EXTT17=
EXTT18=
EXTT19=
PLAYORDER=
